<svg viewBox="0 0 1808 1028" xmlns="http://www.w3.org/2000/svg"><defs><style>.cls-1{fill:#ebf2f9;}.cls-2{fill:#7ca8f4;}.cls-3{fill:#abc8f7;}.cls-4{fill:#d5e5fb;}.cls-5{fill:#a8d29f;}.cls-6,.cls-9{fill:#d86713;}.cls-7{fill:#ee9849;}.cls-8{fill:#f1a34f;}.cls-9{opacity:0.4;}.cls-10{fill:#699dee;}.cls-11{fill:#e9f3fe;}.cls-12{fill:#afcdfb;}.cls-13{fill:#4a75cb;}.cls-14{fill:#e49963;}.cls-15{fill:#163560;}.cls-16{fill:#e37970;}.cls-17{fill:#d68d5d;}.cls-18{fill:#2b478b;}.cls-19{fill:#e7f1fd;}.cls-20{fill:#c65447;}.cls-21{fill:#c45446;}.cls-22{fill:#233862;}.cls-23{fill:#aa413e;}.cls-24{fill:#c95c12;}.cls-25{fill:#b5453c;}.cls-26{fill:#fff;}.cls-27{fill:#1c468a;}.cls-28{fill:#283250;}.cls-29{fill:#e58638;}.cls-30{fill:#ffb27d;}.cls-31{fill:#fca56b;}.cls-32{fill:#82b378;}.cls-33{fill:#ffb973;}</style></defs><g id="图层_2"><g id="图层_1-2"><path d="M1526.78,1022.76s197,43.79,259.76-121.86c81.37-214.91-85.81-377.86-214-347.5C1293.11,619.55,1360.39-110.27,912,38.68c-126.09,41.88-466.75-206.92-561.75,192C327.65,325.56,247.61,336,131.41,396.2-96,514,8,1024.75,170.47,1026.76S1526.78,1022.76,1526.78,1022.76Z" class="cls-1"></path><path d="M1152.09,355.79c5.6,21.78-10.57,40-2.12,75.41s77.12,38.28,77.12,38.28c-14.75-21-16.83-68.07-9.8-72.64s27.34,58.49,32.89,67.39,29.51,19,62.37-5.74-.67-86.3-.67-86.3-78.76-20.15-84.65-32.6,70.47,3.1,70.47,3.1c-6.2-26.15-56.63-79.37-56.63-79.37s-73,32.86-75.83,19.23,66-25.55,66-25.55c-15-21.81-49.23-34.35-49.23-34.35-20.84-4.65-35.22,4-45,16.13v89.58C1141,327.85,1147.91,339.48,1152.09,355.79Z" class="cls-2"></path><path d="M392.93,781.17a18.62,18.62,0,0,1,1.52,2.11L392,766.35a92.82,92.82,0,0,1-13.45-6.87s-.14-78.26-57-77c0,0-37.58,5.92-56.68,25.37,0,0,69.74,26.5,64.61,40s-75.84-35.48-75.84-35.48S192.72,757,182.12,782.77c0,0,81.91-.36,73.8,11.3s-93.24,16.28-93.24,16.28-44.67,56.77-14.41,89,56.78,26.81,64,18.76,38.33-69,44.92-62.87-3,54.4-21.73,73.06c0,0,71.91,11.16,86.33-23.69s.48-57,9.76-78.38,22.34-33.08,22.16-19.64-21.89,45.86-17.33,70.57,5.7,43.14,27.78,16.16c14.89-18.19,31.22-50.18,35.23-76.68l-4.88-33.19Z" class="cls-3"></path><path d="M236.69,422S287,484.39,274.3,484.93s-67.82-61.84-67.82-61.84-65-1.31-68,40.47,16.9,58.88,26.65,59.72,69.31-10.62,69.24-2-38,29.12-61.83,25.63c0,0,36.54,61.39,68.51,52.26s38.19-32.59,58.06-37.84,35.63-2,26.59,5.58-43.86,9.78-57.49,27.55S243,623.72,274.47,625c21.92.89,54.58-5.56,74.52-18.68l-31.06-173C298.74,427.9,254.86,416.79,236.69,422Z" class="cls-4"></path><path d="M1109.87,948.49c-40.63-36.84-79.63,11.28-136.5-20.18s60.12-186.8,13-234-125.12,53.09-125.12,53.09S997.74,541,945.74,515.19s-380.88-91.58-380.88-91.58L505.44,838.38c-12.16-19-37.91-43.55-60.21-12.6C415.56,867,515,955.65,499.33,973.6s-53.23-58.07-85-28.34,9,80.74,9,80.74l89.08,1.5s0-1.34,0-3.76h628.33S1150.49,985.33,1109.87,948.49Z" class="cls-5"></path><path d="M684.93,401,644,989.64s-4.29,35.69,17.64,35.75c36.07.1,179.52,0,179.52,0S814,1018,814.36,1001.25c.39-19.7,47.82-605.85,47.82-605.85Z" class="cls-6"></path><path d="M852.82,1014.71c-7.1,0-144.11.55-179.23,0-15.31-.23-18-16.47-18.12-27a63.47,63.47,0,0,1,.47-8.76l1.06-15.3,2.71-39,2.4-34.45L665.19,846l2.59-37.37,29.07-418.3,177.26-5.56S854.13,630,840,808.58c-1.58,19.89-3.08,39-4.47,56.77q-.67,8.53-1.3,16.66c-1.31,16.9-2.51,32.41-3.55,46.11q-.82,10.83-1.52,20.07c-1.8,24.08-2.86,39.46-2.87,42.38a29.82,29.82,0,0,0,.34,4.77C829.54,1014.1,850.16,1014.71,852.82,1014.71Z" class="cls-7"></path><polygon points="1105.46 80.64 254.46 80.64 354.12 565.04 367.77 631.38 414.18 857 1276.55 857 1105.46 80.64" class="cls-8"></polygon><polygon points="254.46 80.64 240.65 86.21 395.82 873.86 414.19 857.01 254.46 80.64" class="cls-7"></polygon><polygon points="395.82 873.86 1252.88 873.86 1276.54 857.01 414.19 857.01 395.82 873.86" class="cls-6"></polygon><rect transform="translate(1579.15 2040.56) rotate(180)" height="10.67" width="185.57" y="1014.95" x="696.79" class="cls-8"></rect><polygon points="835.19 873.85 834.23 882.01 659.71 924.67 662.11 890.22 663.25 873.85 835.19 873.85" class="cls-6"></polygon><path d="M852.82,1014.71c-7.1,0-144.11.55-179.23,0-15.31-.23-18-16.47-18.12-27l173.69-39.54c-1.8,24.08-2.86,39.46-2.87,42.38a29.82,29.82,0,0,0,.34,4.77C829.54,1014.1,850.16,1014.71,852.82,1014.71Z" class="cls-9"></path><polygon points="781.8 704.48 414.18 857.01 382.79 704.39 781.8 704.48" class="cls-9"></polygon><polygon points="1105.46 80.64 254.46 80.64 382.72 704.39 1243.53 704.59 1105.46 80.64" class="cls-10"></polygon><path d="M868.23,783.47c-2.46-15.3-14.71-27.71-27.35-27.71S820,768.17,822.43,783.47s14.7,27.7,27.35,27.7S870.69,798.77,868.23,783.47Z" class="cls-6"></path><polygon points="1203.4 677.55 406.6 677.55 316.37 242.58 309.45 209.22 303.55 180.77 289.71 114.06 1075.02 114.06 1090.22 180.77 1096.7 209.22 1104.3 242.58 1203.4 677.55" class="cls-11"></polygon><polygon points="1075.02 114.06 289.71 114.06 303.55 180.77 1090.22 180.77 1075.02 114.06" class="cls-12"></polygon><polygon points="570.57 286.62 650 286.62 660.31 334.8 580.87 334.8 570.57 286.62" class="cls-5"></polygon><polygon points="422.95 334.8 502.38 334.8 512.22 380.78 432.99 380.78 422.95 334.8" class="cls-5"></polygon><polygon points="809.68 286.62 889.12 286.62 899.42 334.8 819.99 334.8 809.68 286.62" class="cls-5"></polygon><polygon points="829.83 384.08 909.26 384.08 919.1 430.06 839.87 430.06 829.83 384.08" class="cls-5"></polygon><polygon points="770.66 479.35 929.97 479.35 939.85 527.53 780.97 527.53 770.66 479.35" class="cls-5"></polygon><rect height="2.8" width="791.21" y="285.22" x="324.33" class="cls-12"></rect><rect height="2.8" width="790.6" y="333.4" x="335.68" class="cls-12"></rect><rect height="2.8" width="793.5" y="381.58" x="343.53" class="cls-12"></rect><rect height="2.8" width="792.56" y="429.76" x="355.22" class="cls-12"></rect><rect height="2.8" width="793.25" y="477.95" x="365.29" class="cls-12"></rect><rect height="2.8" width="794.53" y="526.13" x="374.76" class="cls-12"></rect><rect height="2.8" width="795.51" y="574.31" x="384.53" class="cls-12"></rect><rect height="2.8" width="795.56" y="622.5" x="395.23" class="cls-12"></rect><path d="M327.37,135.87c-3.81,0-6.12,3.73-5.17,8.34s4.8,8.34,8.61,8.34,6.12-3.74,5.17-8.34S331.18,135.87,327.37,135.87Z" class="cls-11"></path><path d="M350.27,135.87c-3.81,0-6.12,3.73-5.17,8.34s4.8,8.34,8.61,8.34,6.12-3.74,5.17-8.34S354.08,135.87,350.27,135.87Z" class="cls-11"></path><path d="M383.54,144.21c-1-4.61-4.8-8.34-8.61-8.34s-6.12,3.73-5.17,8.34,4.8,8.34,8.61,8.34S384.49,148.81,383.54,144.21Z" class="cls-11"></path><polygon points="1129.69 677.9 1131.93 677.2 1038.97 242.58 1104.3 242.58 1096.7 209.22 1031.83 209.22 1031.76 208.87 1030.64 209.22 952.39 209.22 952.32 208.87 951.2 209.22 872.96 209.22 872.88 208.87 871.76 209.22 793.52 209.22 793.45 208.87 792.33 209.22 714.08 209.22 714.01 208.87 712.89 209.22 634.64 209.22 634.57 208.87 633.45 209.22 555.21 209.22 555.13 208.87 554.01 209.22 475.77 209.22 475.69 208.87 474.57 209.22 396.33 209.22 396.26 208.87 395.14 209.22 309.45 209.22 316.37 242.58 401.08 242.58 494.19 677.9 496.43 677.2 403.46 242.58 480.51 242.58 573.63 677.9 575.87 677.2 482.9 242.58 559.95 242.58 653.06 677.9 655.3 677.2 562.34 242.58 639.39 242.58 732.5 677.9 734.74 677.2 641.78 242.58 718.83 242.58 811.94 677.9 814.18 677.2 721.22 242.58 798.27 242.58 891.38 677.9 893.62 677.2 800.65 242.58 877.7 242.58 970.82 677.9 973.05 677.2 880.09 242.58 957.14 242.58 1050.25 677.9 1052.49 677.2 959.53 242.58 1036.58 242.58 1129.69 677.9" class="cls-12"></polygon><rect height="201.19" width="166.26" y="492.55" x="1510.5" class="cls-6"></rect><rect height="201.19" width="166.26" y="492.55" x="1561.76" class="cls-7"></rect><path d="M1646.66,626.72c-6.7,0-12.12,6.64-12.09,14.75h0c0,8.12,5.49,14.67,12.19,14.64h0c6.71,0,12.12-6.64,12.1-14.76h0C1658.83,633.24,1653.37,626.69,1646.66,626.72Z" class="cls-1"></path><path d="M1646.76,557.32h0c6.71,0,12.12-6.64,12.1-14.75h0c0-8.11-5.49-14.67-12.2-14.63s-12.12,6.64-12.09,14.75S1640.06,557.36,1646.76,557.32Z" class="cls-1"></path><polygon points="1698.53 578.19 1594.47 578.72 1594.57 608.1 1698.63 607.58 1698.53 578.19" class="cls-1"></polygon><rect height="171.99" width="142.13" y="631.95" x="85.57" class="cls-13"></rect><rect height="171.99" width="142.13" y="631.95" x="129.4" class="cls-10"></rect><rect height="25.12" width="88.96" y="705.38" x="157.4" class="cls-1"></rect><polygon points="459.24 949.98 467.53 992.25 479.96 992.17 480.41 949.98 459.24 949.98" class="cls-14"></polygon><polygon points="563.74 951.78 587.34 992.25 596.54 977.96 582.33 946.22 563.74 951.78" class="cls-14"></polygon><path d="M502.39,394.53c-4.29-2.95-9.43-3.27-13-3a5.68,5.68,0,0,1,2.75-1.57c-2.23-.4-7.21,2.27-7.21,2.27-31-14.46-35.88,40.79-35.23,53.63s-10.42,17-26.55,27.13c-30.78,19.3-33.49,45.14-33.49,45.14.24.17.49.36.76.59,1.53-3.13,4.67-9,7.32-9.9-.1.28-3.13,8.09-4.26,12.57,9.08,8.36,26.07,26.88,37.91,40-.06-2.57,0-6.21.8-8.13l1.47,10.65c6.33,7.05,10.7,12,10.7,12-.78-10.37,38.77-65.11,59.4-81.5,5-9,6.81-24.76,6.95-26-.87,12.53-2.64,19.56-4.23,23.52C523.93,472.47,513.75,402.34,502.39,394.53Z" class="cls-15"></path><path d="M502.51,495.22c.11.06-10,6.38-17.53,3.88-7.13-2.35-11.78-13.53-11.68-13.55,3-.73,3.89-5.74,3.82-27.29l1.37.32,22.92,5.5s-.52,8.73-.54,16.95C500.86,487.94,501.21,494.49,502.51,495.22Z" class="cls-14"></path><path d="M476.58,403.58s11.31-14.57,25.51-.75C502.09,402.83,493.83,401.1,476.58,403.58Z" class="cls-16"></path><path d="M501.41,464.08s-.52,8.73-.54,16.95c-12.83-.44-19.61-14.6-22.38-22.45Z" class="cls-17"></path><path d="M476.12,455.56s-6.73-12.85-8.34-23.84c-1.15-7.85,2.15-36.94,26.31-32.75a29.32,29.32,0,0,1,13.61,6.23c5.24,4.28,12.81,13.54,4.35,38.92l-2.2,8.57Z" class="cls-15"></path><path d="M592.79,966.87l-12.15.45-13.16.49s-30.38-40.94-47.42-106.56c-.4-1.53-.82-3.07-1.27-4.63-9.32-32.91-28.66-74.22-38.85-111.62q-2.43-8.93-4.38-16.86-.63-2.55-1.22-5c-7.51-31.57-9.68-52.3-11.69-74.45l73.59.71S548.12,800.63,592.79,966.87Z" class="cls-18"></path><path d="M525.94,598.22c-.19,42.37,5.13,60.55,5.13,60.55s-31.5,19.37-69,5.11c-.44-.17-31-8.61-31-8.61.62-1.71,6.2-30.27,6.81-31.84,7.9-20.54,13.91-29.55,14.84-35.87a162,162,0,0,0,.91-35.49,336.73,336.73,0,0,0-9.08-55.75c10.21-2.81,19.76-7.75,30.38-12.56,2.44,3.68,9.91,7.53,16.39,7.35,7.46-.2,9.87-4.06,9.49-8.28,7.95,5.35,14.29,10.41,14.29,10.41,6.75,14.2,20.45,28,21.45,49.77C536.84,548.36,525.94,597,525.94,598.22Z" class="cls-19"></path><path d="M568.66,535.28C557.85,520,529.87,486.89,501,482.83l24.92,58.75s1.4,10.07,8.78,15.93c18.08,14.38,41.06,20.73,41.06,20.73s15.56-8.21,36.84-27.08c6.68-5.92,18.42-28.51,18.42-28.51l-3.17-12.81s-19.92,13.48-27,17.36c-4.06,2.22-13.4,7.51-20,11.25C576.64,540.83,571.66,539.53,568.66,535.28Z" class="cls-20"></path><path d="M505.7,471.86s-30.36.61-30.38-22.27-3.95-38.21,15.43-39.56,23.15,7.37,24.69,15S513.59,471.12,505.7,471.86Z" class="cls-14"></path><path d="M504.57,409.47s-8.31,26.84-21.06,30.81-18.29-.17-18.29-.17A45.87,45.87,0,0,0,477,414.29S498.3,396.69,504.57,409.47Z" class="cls-15"></path><path d="M502.51,411.64s6.21,6,7.72,11.82,2.2,17.82,5.09,17.42c0,0,6.26-18.25-.78-28.57C507.08,401.37,502.51,411.64,502.51,411.64Z" class="cls-15"></path><path d="M627.84,509.84s4.28-18.67,21.23-16c1.95.74,7.64,3.48,4,10.85-2.68,5.43-3.84,2.63-8.05,9.92s-8.79,8.95-14,8.07Z" class="cls-14"></path><path d="M467.12,989.89a48.86,48.86,0,0,1-1.59,17.33s-2,11.21,7.09,11.42,11.37-.83,10.33-7.71-3-18.76-3-18.76Z" class="cls-14"></path><path d="M483.82,1023.43s-.2.14-.58.36H465.38a4.77,4.77,0,0,1-.5-.36c-1-5.63.65-16.21.65-16.21,10.34,11.46,16.8-.29,16.8-.29C484,1011.83,483.82,1023.43,483.82,1023.43Z" class="cls-21"></path><path d="M618.52,1012.05s-16.82-22.59-22-34.09L584,985.72l28,31.77,6.54-1Z" class="cls-14"></path><path d="M629,1023.79h-23c-2.22-2-4.29-6.64-6.86-12.87-1.37-3.32-4.45-5.15-7.62-6.16v18.82h-4.77l-4.52-20c-3-6.63-.24-12.63,1.86-17.86,2.43,0,9,2,21.42,18.95,4.09,5.56,8.6,7.56,13.07,7.38l.19.12C626.2,1016.25,628.35,1021.32,629,1023.79Z" class="cls-21"></path><path d="M500.86,482.83s17.56,52.5,18.08,63.12S521,719.69,521,719.69s-1,7.5,10.85,4.38,15-6.25,15-6.25S535.46,617.2,538.56,582.2s-23.76-92.08-23.76-92.08Z" class="cls-20"></path><path d="M580.64,967.32l-13.16.49s-30.38-40.94-47.42-106.56c-.4-1.53-.82-3.07-1.27-4.63-9.32-32.91-28.66-74.22-38.85-111.62q-2.43-8.93-4.38-16.86-.63-2.55-1.22-5l10.84-10s32.53,63.75,42.6,123.74C536.53,889,571.57,951.73,580.64,967.32Z" class="cls-22"></path><path d="M546.1,572.46l-.64,2.38-34.06-13.4a1.82,1.82,0,0,1-.21-1.47c.26-.91.85-.91.85-.91Z" class="cls-15"></path><path d="M486.31,842.5c.18,29.17-1,96.25-4.17,124H470.48c-6.44,0-9.65-.11-9.65-.11-7.88-48.28-13.48-88.23-17.56-122.65-3.35-28.25-6.32-52.47-8.61-73.31-2.3-21-3.9-38.55-4.48-53.4-.09-2.33-.15-4.61-.19-6.81s-.05-4.38,0-6.47l63.58-7.5C492.74,747.37,486.2,825.54,486.31,842.5Z" class="cls-18"></path><path d="M470.48,966.51c-6.44,0-9.65-.11-9.65-.11-7.88-48.28-13.48-88.23-17.56-122.65-3.35-28.25-6.32-52.47-8.61-73.31-2.3-21-3.9-38.55-4.48-53.4l23.33,16.61s-14.89,6.35-9.21,54.48S462.58,959.7,470.48,966.51Z" class="cls-22"></path><path d="M473.49,716.57s-4.48,19.58-20,17.08S416,719.9,416,719.9s6.62-25.32,14.85-58.58c10-40.26,22.31-92.17,28.12-124.92,1.63-9.17,2.75-16.83,3.16-22.32L475,483.9s19.16,52.05,20.2,65.18S473.49,716.57,473.49,716.57Z" class="cls-20"></path><path d="M458,547.12l17-63.22c-.05,0-21.43,7.7-32.18,14.27,0,0-6.73,10.49-10.89,34.69,0,0-4.39,58.09,5.42,79.34,0,0,31,7.5,80.57-13.12V585.33s-54.23,3.43-65.33,5Z" class="cls-14"></path><path d="M472.8,576.58c-.69,21.25-4.83,62.49-41.67,84.57l-.29.17c10-40.26,22.31-92.17,28.12-124.92C465.73,548.64,473.18,564.88,472.8,576.58Z" class="cls-23"></path><path d="M475,483.9s-31.45,2.68-39,23.1-10,88.33-.34,108.32c0,0,13.27,4.58,36.75-.73l.87-.2s7.49-22.19.77-26.56c0,0-19.8,1.25-17.73-6.67S475,483.9,475,483.9Z" class="cls-20"></path><path d="M512.34,589s4.32-6.33,5.25-12.8,3.78-11.27,11.23-12.45,10.67-1.32,10.65,1.23-6.1,20.3-16.8,30.9S512.34,589,512.34,589Z" class="cls-14"></path><polygon points="548.55 574.75 546.1 572.46 545.46 574.84 548.55 574.75" class="cls-15"></polygon><rect transform="translate(3132.4 1720.62) rotate(180)" height="333.14" width="275.31" y="693.74" x="1428.55" class="cls-6"></rect><rect height="333.14" width="275.31" y="693.74" x="1343.66" class="cls-8"></rect><polygon points="1564.73 835.98 1498.68 835.98 1498.68 756.06 1458.47 756.06 1458.47 835.98 1392.42 835.98 1392.42 884.64 1458.47 884.64 1458.47 964.56 1498.68 964.56 1498.68 884.64 1564.73 884.64 1564.73 835.98" class="cls-1"></polygon><polygon points="1618.97 693.74 1703.86 743.76 1703.86 693.74 1618.97 693.74" class="cls-24"></polygon><path d="M1375.62,830.71a6.93,6.93,0,0,1,.87,6.36,0,0,0,0,1,0,0c-1.27,4.24-5.45,9-10.32,13.7-.62.6-1.17,1.15-1.65,1.67a4.61,4.61,0,0,0-.37.4l-.29.31c-4.54,5.06-2.83,6.22-11,16.48-9.29,11.7-15.68,11.91-17.5,10.85-1.54-.91,1.58-7.12,5.05-14.09.17-.33.33-.67.51-1,.46-.93.92-1.87,1.37-2.8,4.07-8.4,3-12.33,2.06-24.82-.78-10.15-13-56.7-13-56.7l17.81-3.71s5.36,37.07,11.26,42.77c3.16,3.05,6.7,3.09,9.74,5.34l.63.48A25.35,25.35,0,0,1,1375.62,830.71Z" class="cls-14"></path><path d="M1375.62,830.71a6.93,6.93,0,0,1,.87,6.36,0,0,0,0,1,0,0c-1.55,4.23-5.63,8.94-10.33,13.65-.62.62-1.16,1.19-1.64,1.72a4.61,4.61,0,0,0-.37.4l-.29.31c-4.54,5.06-2.83,6.22-11,16.48-9.29,11.7-15.68,11.91-17.5,10.85-1.54-.91,1.58-7.12,5.05-14.09A40.49,40.49,0,0,0,1357,851.66c5.6-8.64,9.33-19.74,13.14-26.17l.63.48A25.35,25.35,0,0,1,1375.62,830.71Z" class="cls-20"></path><path d="M1232.06,817.26c-1.1,6.65-8.93,5.54-17.69,3s-6.67.49-19.12-1.18-16.23-7.29-16.61-9.53c-.34-2,5.81-2.69,12.41-3.61l2.5-.36c7.46-1.13,12.91-6.95,19.68-11.73,6.42-4.53,16-23,16-23l17.08,1.64s-9,16.48-12.43,23.64c-2,4.21-1.93,9.78-1.68,14.09A32.18,32.18,0,0,1,1232.06,817.26Z" class="cls-14"></path><path d="M1214.37,820.21c-8.75-2.59-6.67.49-19.12-1.18s-16.23-7.29-16.61-9.53c-.34-2,5.81-2.69,12.41-3.61l.07.15a31.42,31.42,0,0,0,17.83,6.71c8.45.25,17.41-2.68,23.24-2.56a32.18,32.18,0,0,1-.13,7.07C1231,823.91,1223.13,822.8,1214.37,820.21Z" class="cls-20"></path><path d="M1270.07,513.66s-4.07-12.06-8.55-12.56-18.72-3.2-19.74-.74,0,11.33,3,14.53,22,8.37,22,8.37Z" class="cls-14"></path><path d="M1297.52,685.09,1334.34,805a28.09,28.09,0,0,0,11.08-1.23c5-1.73,10.7-6.3,10.7-6.3s-9.13-115.12-25.87-139.06S1297.52,685.09,1297.52,685.09Z" class="cls-23"></path><path d="M1443.14,636.58s-105.79-43.28-129.38-34.07-94.43,179.75-94.43,179.75,1.6,2.57,6,4.55c4.06,1.84,13.89,1.72,13.89,1.72s63.92-66.3,71.53-85.64S1321.37,665.13,1329,667s98.17,45.13,118.72,19.34S1462.88,627,1462.88,627Z" class="cls-20"></path><path d="M1378.49,435.23c-1.69-4.22-3.58-11.72-4.5-25.08.14,1.33,2,18.18,7.4,27.72,22,17.48,64.17,75.84,63.33,86.9,0,0,14.86-30.49,15.11-30.67,0,0,27.4-42.16-5.07-66.31-16.51-12.27-16.42-28-15.73-41.71s-4.5-72.59-37.56-57.17c0,0-5.31-2.85-7.69-2.43a6,6,0,0,1,2.93,1.69c-3.83-.28-9.31.06-13.88,3.21C1370.71,339.71,1359.86,414.48,1378.49,435.23Z" class="cls-25"></path><path d="M1382.69,438.74c-.11.06,10.62,6.8,18.7,4.13,7.59-2.5,12.55-14.42,12.45-14.44-3.22-.78-4.15-6.12-4.08-29.1l-1.45.34-24.45,5.86s.56,9.31.58,18.08C1384.45,431,1384.09,438,1382.69,438.74Z" class="cls-14"></path><path d="M1383.86,405.53s.56,9.31.58,18.08c13.68-.47,20.91-15.57,23.87-23.94Z" class="cls-17"></path><path d="M1410.83,396.45s7.17-13.7,8.89-25.42c1.23-8.37-2.29-39.38-28-34.91a31.22,31.22,0,0,0-14.51,6.63c-5.59,4.57-13.66,14.44-4.64,41.5l2.35,9.14Z" class="cls-25"></path><path d="M1379.3,413.83s32.36.65,32.38-23.74,4.22-40.74-16.45-42.19-24.68,7.86-26.33,16S1370.88,413,1379.3,413.83Z" class="cls-14"></path><path d="M1409.86,352.45s-22.11-18.29-29.1-5.64c-2.12-2.2-5.9-3.8-10.89,3.53-7.51,11-.83,30.45-.83,30.45,3.08.44,3.81-12.35,5.42-18.56,1.22-4.68,5.28-9.47,7.2-11.54,2.83,7.7,10.59,26.14,21.29,29.47,13.6,4.23,19.5-.18,19.5-.18A48.92,48.92,0,0,1,1409.86,352.45Z" class="cls-25"></path><path d="M1468,637.26c-1.74,5.86-7.1,7.37-14.27,6.35-13.68-1.93-34-13-48.65-20.73-22.32-11.71-32.47-.71-39.57-8.16s8.12-24-5.08-101c-4.47-26.1,23.87-82.08,23.87-82.08s2,15.17,29.59-3.24c.14-.1,11.63,18.44,21.92,42,11.33,26,22.19,57.45,19,73.65C1448.67,575,1473,620.22,1468,637.26Z" class="cls-10"></path><path d="M1384.25,431.67l-16.71,83.05s-2.08,4.48-5.34,10.86c-7.66,15-21.83,40.43-30.9,43-4.48,1.28-14-3.23-24.53-9.67-19.92-12.17-43.47-31.25-43.47-31.25-1.52-11,6.43-20.06,6.43-20.06s47.69,21.69,52.43,22.1c10.33.89,20.84-59.41,30.49-79.51C1359.62,435.67,1384.25,431.67,1384.25,431.67Z" class="cls-10"></path><path d="M1386.49,399.05s-.6,3.1-7,2.62c0,0-5.35-.4-5.19-3.81C1374.33,397.86,1379.52,395.44,1386.49,399.05Z" class="cls-26"></path><path d="M1468,637.26c-1.74,5.86-7.1,7.37-14.27,6.35-9.47-5-50.37-24.16-49.91-37.15.68-19.24,7.86-19.85,2.79-43.59-4.08-19.07,33.71-54.51,39.74-62.22,11.34,26,11.65,27.25,8.46,43.45C1448.67,575,1473,620.22,1468,637.26Z" class="cls-13"></path><path d="M1362.2,525.58c-7.66,15-21.83,40.43-30.9,43-4.48,1.28-14-3.23-24.53-9.67,7.69,2.4,15.15,2.34,22.41,1.49,7.86-.92,10.15-12.59,22.58-30.08C1359.82,519,1361.8,521.83,1362.2,525.58Z" class="cls-13"></path><path d="M1400.09,562.4s-6.85-6.44-13.32-4.91-9.64,6.91-9.39,9.37,3.68,9.36,8.63,10,19-3.68,19-3.68Z" class="cls-14"></path><path d="M1413.84,428.43s26.38,2,35.51,17.37c12.85,21.7,43.7,118.19,29.09,130.52-16.46,13.89-80.26-.41-80.26-.41s-1.94-11,.77-16.32,46.68-13.92,48.71-16.37-25.37-47.89-25.37-55.26S1413.84,428.43,1413.84,428.43Z" class="cls-10"></path><polygon points="1393.2 605.76 1296.05 605.76 1278.53 531.86 1375.54 531.86 1393.2 605.76" class="cls-27"></polygon><rect height="2.88" width="127.02" y="602.89" x="1296.38" class="cls-15"></rect><path d="M1326.9,567.61c-.62-2.6.62-4.7,2.77-4.7s4.39,2.1,5,4.7-.62,4.7-2.77,4.7S1327.51,570.21,1326.9,567.61Z" class="cls-15"></path><path d="M1776.65,1027.5H31.35a1.76,1.76,0,0,1-1.56-1.88h0a1.76,1.76,0,0,1,1.56-1.89h1745.3a1.76,1.76,0,0,1,1.56,1.89h0A1.76,1.76,0,0,1,1776.65,1027.5Z" class="cls-28"></path><rect height="219.8" width="181.64" y="803.93" x="101.4" class="cls-6"></rect><rect height="219.8" width="181.64" y="803.93" x="157.4" class="cls-8"></rect><polygon points="300.1 950.13 268.79 913.46 299.1 875.57 280.03 853.24 249.72 891.13 218.41 854.46 199.96 877.53 231.27 914.2 200.97 952.1 220.03 974.42 250.34 936.53 281.65 973.2 300.1 950.13" class="cls-1"></polygon><polygon points="157.4 803.93 101.4 845.02 101.4 803.93 157.4 803.93" class="cls-24"></polygon><path d="M1079.25,449.38s42.34,52.18,44.37,72.14-20.16,51.19-20.16,51.19Z" class="cls-29"></path><path d="M1061.1,998.42s-.9,17.58-3.51,25.15h-52.94a10.09,10.09,0,0,1,7.8-6.77c8.29-1.76,22.17-8.81,27.19-22.07C1044.92,980.78,1061.1,998.42,1061.1,998.42Z" class="cls-15"></path><path d="M1124.28,998.42s-.9,17.58-3.5,25.15h-53a10.09,10.09,0,0,1,7.8-6.77c8.29-1.76,22.17-8.81,27.19-22.07C1108.11,980.78,1124.28,998.42,1124.28,998.42Z" class="cls-15"></path><path d="M1029.68,696s7.42,57.42,35.1,159.34,31.44,146.06,31.44,146.06l29.69-1s.26-111.39-12.5-162.64S1110.66,653,1110.66,653Z" class="cls-15"></path><path d="M1015.23,656.1s-1.05,86.53,11.33,192.76,8.17,151.33,8.17,151.33l29.63,1.19s17.71-106.27,12.63-159.45,24.25-182.45,24.25-182.45Z" class="cls-27"></path><path d="M1072.59,453.63l-15.78,12.53L1034,461c.32-2.23,1.82-11.46,3.2-19.83.08-.49.16-1,.24-1.47,1.17-7.12,2.19-13.24,2.19-13.24l21.31-11.37,7.94-4.24c0,.15-.61,7.9-.7,9C1066.68,440,1072.59,453.63,1072.59,453.63Z" class="cls-30"></path><path d="M1112.63,666.79c-4.59,25.29-80.84,28.29-100.5,5.33-2.24-2.62-2.35-14.79-1.5-31.21,1.65-32.07,6.94-80.32,7.15-105A234.68,234.68,0,0,1,1021,500.8a331.56,331.56,0,0,1,9.68-42.05s37.24-14.57,44.21-12.09C1108.5,458.59,1117.21,641.49,1112.63,666.79Z" class="cls-7"></path><path d="M1010.63,640.91c1.65-32.07,6.94-80.32,7.15-105A234.68,234.68,0,0,1,1021,500.8l22.41-4.78S1065.35,604.29,1010.63,640.91Z" class="cls-29"></path><path d="M1022.76,596.2s1.53,4.42-1.68,7.39-5.29,7.77-4.55,11.28,7.77,9.24,10.21,8.31,7.4-5.54,6.86-7.4,3.34-16.25-2.6-21.8S1022.76,596.2,1022.76,596.2Z" class="cls-30"></path><path d="M1047.81,452.26s-21.85,4.95-39.26,36-28.86,54.13-25.66,65.32,32.45,50,37.49,50,13.17-4.44,13.63-14.42c0,0-20.59-37.33-16.53-42.92,1.73-2.39,26.72-26.94,30.29-15.85C1053.67,548.74,1047.81,452.26,1047.81,452.26Z" class="cls-7"></path><path d="M1066.57,420.24c-4.67,9.59-22.11,17.89-29.38,20.94.08-.49.16-1,.24-1.47,1.17-7.12,2.19-13.24,2.19-13.24l21.31-11.37C1065.64,415,1068.51,416.3,1066.57,420.24Z" class="cls-31"></path><path d="M1031.59,424.91s34.32,12.95,40.66-13,15-41.82-6.61-51.19-28.34-1-32.2,7.07S1022.82,420.87,1031.59,424.91Z" class="cls-30"></path><path d="M1034.79,365.25s2.18,30.24,7.35,28.93,9.86-2.29,9.1,6.83-7.92,19.64,8,21.26,38.83-48.1,34.45-57.52C1081.08,337.6,1016.54,332.12,1034.79,365.25Z" class="cls-15"></path><path d="M1039.84,447.31c.44-.22,27.47-9.88,30.41-8.7s4.67,8.05,4.67,8.05l-44.21,12.09S1034.19,450.19,1039.84,447.31Z" class="cls-29"></path><path d="M185.5,523.88s-14.33-20.23-.88-33.08c0,0,9.82-7.2,17.83-6.61,0,0-11.35,23-7.68,25.31s11.12-26.76,11.12-26.76,22.35-2.62,29.54,1.57c0,0-19.11,18.92-15.08,20S245,486.91,245,486.91s20.8,4.28,19.69,19.64-8.28,20.09-11.43,19.68-21.58-8.92-22-5.79,10.69,13.33,18.46,13.81c0,0-14.66,19.57-24.41,13.92s-10.58-14.6-16.66-18-11.26-3.35-8.75.07,13.51,6.76,17,14.19,6.59,12.46-3.49,10.62-26.48-10.76-27.2-21Z" class="cls-32"></path><path d="M254.48,507s-56.5-2.63-69,16.92A51.18,51.18,0,0,1,174.25,543l-1.32,4.37s9.79-12.49,13.29-13.25C186.22,534.1,180.74,509.88,254.48,507Z" class="cls-32"></path><path d="M174.25,543a45.38,45.38,0,0,0-13,30.25l2.2.24s3.88-20.05,10.88-27.89S174.25,543,174.25,543Z" class="cls-32"></path><path d="M135.4,498.44S158.2,483,147.56,462c0,0-8.51-12.87-17.63-16.18,0,0,4.86,31.26,0,32s-3.34-35.3-3.34-35.3-24-14-33.43-12.87c0,0,14.89,30.52,10,29.78s-21.57-31.62-21.57-31.62S57,422.31,53,440s2.43,26.48,6.08,27.59,27,.73,26.44,4.41-16.42,9.56-25.23,6.25c0,0,9.73,29.05,22.49,27.58s16.72-11,24.62-11.77,13.68,1.84,9.73,4.42-17.33.84-23.71,7.41-11.55,10.61.3,13.55,33.13,1.1,37.39-9.93Z" class="cls-5"></path><path d="M64.28,445.48s63.83,25,71.12,53a68.92,68.92,0,0,0,6.08,26.84v5.52s-6.69-18.75-10.33-21.33C131.15,509.47,145.43,485.2,64.28,445.48Z" class="cls-32"></path><path d="M141.48,525.28a60,60,0,0,1,4.23,40.11l-2.53-.83s2.46-24.25-2.69-36.44S141.48,525.28,141.48,525.28Z" class="cls-32"></path><path d="M171.67,477.14s-30-20.37-16-48c0,0,11.22-17,23.24-21.33,0,0-6.41,41.21,0,42.18s4.4-46.54,4.4-46.54,31.65-18.42,44.07-17c0,0-19.63,40.24-13.22,39.27s28.45-41.69,28.45-41.69,32.45-7.28,37.66,16-3.21,34.91-8,36.36-35.65,1-34.85,5.82,21.63,12.61,33.25,8.24c0,0-12.82,38.3-29.64,36.36s-22-14.54-32.46-15.51-18,2.42-12.82,5.82,22.84,1.11,31.25,9.76,15.23,14-.4,17.87-43.67,1.45-49.28-13.09Z" class="cls-5"></path><path d="M265.41,407.33s-84.13,33-93.74,69.81a90.7,90.7,0,0,1-8,35.38v7.28s8.82-24.73,13.62-28.12C177.27,491.68,158.44,459.68,265.41,407.33Z" class="cls-32"></path><path d="M163.65,512.52s-13,23.85-5.58,52.87l3.34-1.09s-3.24-32,3.55-48S163.65,512.52,163.65,512.52Z" class="cls-32"></path><path d="M170.65,628.32c32.51,0,58.86-31.89,58.86-71.22H111.79C111.79,596.43,138.15,628.32,170.65,628.32Z" class="cls-8"></path><path d="M185.14,627.78a49.28,49.28,0,0,1-7.32.54c-32.5,0-58.85-31.89-58.85-71.22h14.62C133.59,593.44,156.08,623.42,185.14,627.78Z" class="cls-33"></path><path d="M223.06,623.16H118.24c-4,0-7.26,3.93-7.26,8.79H230.32C230.32,627.09,227.07,623.16,223.06,623.16Z" class="cls-8"></path><rect height="2.19" width="120.99" y="557.1" x="109.86" class="cls-6"></rect></g></g></svg>